<?xml version="1.0" standalone="no"?>
<!DOCTYPE svg PUBLIC "-//W3C//DTD SVG 20010904//EN"
 "http://www.w3.org/TR/2001/REC-SVG-20010904/DTD/svg10.dtd">
<svg version="1.0" xmlns="http://www.w3.org/2000/svg"
 width="1983.000000pt" height="1983.000000pt" viewBox="0 0 1983.000000 1983.000000"
 preserveAspectRatio="xMidYMid meet">
<metadata>
Created by potrace 1.14, written by Peter Selinger 2001-2017
</metadata>
<g transform="translate(0.000000,1983.000000) scale(0.100000,-0.100000)"
fill="#000000" stroke="none">
<path d="M9538 19825 c-2 -1 -70 -6 -153 -9 -82 -4 -166 -9 -185 -11 -19 -2
-71 -6 -115 -9 -76 -5 -130 -11 -220 -21 -22 -2 -83 -9 -135 -15 -52 -6 -122
-15 -155 -20 -33 -5 -82 -12 -110 -16 -27 -3 -59 -8 -70 -10 -11 -2 -38 -7
-60 -10 -51 -6 -205 -33 -225 -39 -8 -2 -32 -6 -52 -9 -21 -3 -57 -10 -80 -15
-24 -6 -56 -12 -73 -15 -74 -14 -86 -17 -295 -67 -69 -17 -132 -32 -140 -34
-8 -2 -35 -8 -60 -14 -177 -40 -901 -269 -924 -292 -6 -5 -16 -9 -23 -9 -11 0
-262 -95 -318 -120 -11 -5 -87 -38 -170 -74 -407 -175 -927 -445 -1240 -644
-22 -14 -56 -35 -75 -47 -436 -271 -987 -685 -1346 -1010 -209 -189 -521 -495
-663 -650 -40 -44 -92 -100 -114 -125 -23 -25 -65 -72 -94 -105 -28 -33 -64
-73 -78 -90 -59 -67 -337 -418 -417 -525 -180 -243 -418 -600 -542 -810 -237
-404 -399 -716 -558 -1075 -54 -121 -136 -316 -163 -390 -135 -358 -164 -441
-231 -655 -25 -80 -47 -152 -49 -160 -2 -8 -15 -53 -29 -100 -30 -103 -84
-312 -92 -353 -2 -17 -7 -33 -9 -37 -4 -6 -38 -152 -51 -215 -3 -19 -6 -30
-20 -95 -12 -56 -53 -278 -59 -320 -4 -24 -8 -47 -10 -50 -2 -3 -6 -28 -9 -55
-3 -28 -8 -63 -11 -80 -3 -16 -7 -43 -10 -60 -3 -16 -10 -68 -15 -115 -6 -47
-13 -96 -15 -110 -6 -44 -16 -123 -20 -175 -3 -27 -7 -68 -9 -90 -3 -22 -8
-78 -11 -125 -4 -47 -8 -103 -10 -125 -27 -313 -27 -1078 0 -1415 3 -36 7 -96
10 -135 8 -102 32 -331 40 -385 2 -14 6 -45 10 -70 15 -116 28 -204 46 -315
26 -156 24 -146 44 -250 10 -49 19 -99 21 -110 1 -11 14 -72 29 -135 14 -63
29 -126 31 -140 3 -14 14 -61 25 -105 11 -44 21 -87 23 -95 18 -73 56 -212 60
-218 3 -5 7 -20 9 -33 28 -152 291 -904 409 -1169 11 -25 27 -61 35 -80 8 -19
30 -68 49 -108 19 -40 34 -76 34 -79 0 -16 262 -533 360 -708 123 -222 403
-665 553 -875 74 -103 297 -401 311 -416 6 -6 20 -23 31 -38 35 -48 290 -352
358 -426 401 -440 772 -793 1162 -1107 72 -57 138 -111 147 -118 81 -66 417
-311 520 -380 602 -400 1106 -674 1711 -931 109 -46 200 -84 203 -84 3 0 20
-6 37 -14 172 -78 888 -311 1107 -361 8 -2 53 -13 100 -25 47 -12 94 -24 105
-26 50 -10 63 -13 100 -22 22 -6 51 -13 65 -16 246 -50 372 -75 405 -80 23 -4
50 -8 62 -10 34 -7 252 -40 328 -51 22 -3 51 -7 65 -10 14 -2 52 -7 85 -10 33
-3 78 -8 100 -10 86 -10 243 -25 305 -30 36 -2 97 -7 135 -9 349 -25 979 -25
1305 -1 19 1 80 6 135 9 55 4 111 9 125 11 14 2 59 6 100 10 41 4 86 8 100 10
14 2 50 7 80 10 30 3 66 8 80 10 14 2 48 7 75 10 58 6 72 8 245 36 36 5 79 12
95 15 17 2 44 7 60 11 17 3 39 7 50 9 11 1 90 16 175 34 217 44 201 41 250 53
14 4 84 21 155 37 502 119 1099 322 1631 555 262 115 705 341 984 502 323 187
777 493 1089 736 127 100 339 272 386 315 17 15 68 61 115 102 150 132 191
171 430 410 244 244 258 259 405 425 122 138 133 152 190 220 28 33 52 62 55
65 18 16 274 347 360 465 85 117 337 489 390 576 8 13 52 85 97 159 46 74 89
149 97 165 9 17 33 62 56 100 301 522 615 1252 813 1895 57 181 143 493 162
580 2 8 19 85 38 170 33 143 59 270 72 345 2 17 7 40 9 51 2 12 7 37 10 55 3
19 7 43 10 54 6 30 16 96 21 130 2 17 6 44 9 60 3 17 8 50 11 75 3 25 8 56 10
70 10 68 15 110 20 160 3 30 8 71 10 90 2 19 7 60 10 90 3 30 7 75 10 100 5
53 14 161 20 245 24 350 25 954 0 1300 -2 33 -7 96 -10 140 -7 109 -14 192
-20 240 -3 22 -7 61 -10 87 -3 26 -7 62 -9 80 -3 18 -8 56 -11 83 -8 69 -25
187 -40 285 -14 86 -26 158 -30 180 -4 23 -19 98 -31 167 -3 16 -12 62 -21
103 -8 41 -16 82 -18 90 -29 142 -131 545 -176 695 -120 397 -281 850 -375
1053 -13 29 -24 55 -24 57 0 5 -28 67 -115 260 -36 80 -226 461 -266 533 -18
31 -48 86 -68 122 -21 36 -40 72 -44 80 -4 8 -17 31 -29 50 -11 19 -26 44 -32
55 -6 11 -38 64 -71 118 -33 54 -66 109 -73 123 -51 95 -518 762 -596 851 -6
7 -15 18 -21 25 -45 58 -130 164 -135 168 -3 3 -13 14 -21 26 -8 11 -39 49
-69 84 -30 35 -75 86 -99 114 -259 300 -644 687 -941 946 -41 36 -77 67 -80
70 -16 17 -303 250 -395 321 -765 590 -1612 1068 -2505 1411 -149 58 -248 94
-280 103 -8 2 -53 17 -100 34 -184 64 -584 183 -727 216 -10 2 -47 12 -83 20
-85 22 -71 18 -255 58 -88 19 -176 38 -195 41 -19 3 -46 8 -60 11 -76 16 -287
52 -345 59 -22 3 -51 8 -65 11 -14 3 -52 8 -85 11 -33 4 -62 8 -65 9 -3 2 -37
6 -75 10 -39 3 -77 8 -85 10 -8 2 -51 7 -95 10 -44 4 -91 8 -105 10 -31 5
-111 12 -240 21 -52 3 -117 8 -145 10 -61 5 -922 13 -927 9z m702 -460 c113
-4 225 -8 250 -10 72 -4 222 -16 265 -20 22 -2 69 -7 105 -10 36 -4 81 -8 100
-11 19 -2 58 -6 85 -9 28 -3 66 -8 85 -10 19 -3 49 -7 65 -9 36 -5 289 -44
328 -51 15 -3 37 -7 50 -9 12 -2 51 -9 87 -16 36 -6 119 -23 185 -37 66 -14
140 -29 165 -34 186 -38 607 -155 890 -249 145 -48 400 -140 445 -160 11 -5
56 -23 100 -40 94 -37 69 -27 313 -135 485 -215 919 -454 1387 -763 121 -80
222 -149 225 -152 3 -3 55 -41 115 -85 204 -147 465 -357 695 -559 352 -311
764 -738 1050 -1091 36 -44 71 -87 77 -95 211 -255 615 -844 775 -1130 14 -25
45 -79 68 -120 84 -146 132 -237 244 -465 135 -272 207 -434 306 -685 39 -102
76 -194 80 -205 31 -75 171 -494 196 -585 20 -74 21 -75 44 -155 20 -67 117
-449 124 -490 2 -11 12 -56 21 -100 9 -44 19 -91 21 -105 2 -14 9 -45 14 -70
5 -25 21 -115 36 -200 31 -192 32 -194 39 -255 4 -27 8 -61 10 -75 6 -40 24
-190 30 -250 3 -30 7 -71 10 -90 2 -19 7 -75 10 -125 4 -49 8 -101 10 -115 25
-163 25 -1003 1 -1330 -3 -30 -7 -93 -11 -140 -3 -47 -8 -96 -10 -110 -2 -14
-7 -56 -10 -95 -3 -38 -8 -81 -10 -95 -3 -24 -8 -61 -21 -167 -3 -27 -11 -86
-19 -133 -7 -47 -16 -103 -19 -125 -3 -22 -8 -53 -11 -70 -18 -104 -39 -215
-60 -315 -14 -63 -27 -126 -29 -140 -59 -298 -201 -782 -356 -1215 -44 -123
-147 -381 -205 -510 -85 -191 -122 -271 -214 -455 -209 -419 -504 -911 -737
-1232 -27 -36 -56 -76 -64 -88 -131 -188 -446 -576 -658 -810 -121 -133 -529
-541 -646 -645 -49 -44 -94 -84 -100 -90 -56 -51 -237 -202 -346 -289 -74 -59
-143 -114 -152 -121 -229 -186 -728 -517 -1088 -722 -187 -106 -704 -373 -724
-373 -2 0 -37 -15 -78 -34 -40 -18 -118 -52 -173 -75 -55 -23 -109 -46 -120
-51 -83 -37 -291 -115 -530 -197 -145 -50 -195 -66 -290 -93 -16 -5 -61 -18
-100 -30 -38 -12 -119 -35 -180 -51 -145 -39 -146 -39 -175 -45 -14 -3 -34 -8
-45 -11 -11 -4 -26 -8 -32 -9 -7 -1 -61 -14 -120 -28 -60 -14 -123 -28 -141
-31 -18 -3 -64 -12 -102 -20 -38 -8 -84 -17 -102 -20 -60 -10 -143 -25 -168
-30 -14 -3 -43 -8 -65 -11 -22 -3 -62 -9 -90 -14 -27 -5 -71 -12 -97 -15 -26
-3 -78 -9 -115 -14 -38 -5 -93 -12 -123 -16 -89 -9 -153 -16 -180 -20 -14 -2
-68 -6 -120 -10 -52 -4 -111 -8 -130 -10 -263 -25 -1041 -26 -1327 0 -21 1
-81 6 -133 10 -52 3 -106 8 -120 10 -14 2 -74 9 -135 15 -105 11 -128 13 -212
25 -21 3 -67 10 -103 15 -215 31 -499 83 -710 130 -52 12 -102 23 -110 25
-303 66 -907 253 -1225 380 -566 225 -1048 463 -1500 740 -55 34 -125 77 -155
95 -30 18 -64 41 -75 50 -11 10 -24 19 -30 21 -5 2 -57 36 -113 74 -57 39
-114 77 -126 85 -33 22 -229 163 -246 177 -8 7 -33 26 -55 42 -22 17 -46 36
-53 42 -7 6 -43 34 -80 62 -64 49 -340 276 -372 307 -9 8 -36 32 -60 53 -340
294 -788 766 -1121 1182 -189 237 -507 683 -616 865 -11 19 -49 82 -85 140
-55 91 -89 149 -188 326 -171 302 -371 729 -511 1086 -120 306 -181 479 -249
708 -58 192 -82 275 -85 290 -2 8 -24 96 -49 195 -24 99 -47 191 -50 205 -3
14 -19 93 -36 175 -17 83 -33 164 -36 180 -3 17 -14 80 -24 140 -11 61 -22
130 -25 155 -3 25 -8 56 -10 70 -2 14 -7 45 -10 70 -3 25 -7 61 -10 80 -2 19
-7 58 -10 85 -4 28 -8 61 -10 75 -2 14 -6 57 -10 95 -3 39 -8 86 -10 105 -29
236 -45 895 -30 1210 8 176 16 311 20 350 2 19 6 77 10 128 3 51 8 100 9 110
2 9 7 49 10 87 4 39 9 81 11 95 2 14 6 50 10 80 4 30 18 125 31 210 13 85 27
171 29 190 3 19 10 58 16 85 5 28 12 66 15 85 3 19 9 51 14 70 5 19 11 51 14
70 3 20 12 65 21 100 19 79 30 125 39 175 2 11 21 83 41 160 122 470 272 913
452 1334 108 255 255 562 358 751 29 52 66 120 82 150 157 287 411 682 633
987 116 159 391 506 430 543 3 3 28 32 55 65 28 33 57 67 65 76 8 8 51 56 95
105 96 106 455 468 576 580 94 86 106 96 224 198 44 38 94 81 110 95 181 161
621 487 890 663 180 116 289 186 320 203 19 10 202 116 235 135 104 62 464
248 650 335 449 210 992 409 1475 540 67 18 319 83 350 90 11 2 38 9 60 14 22
6 54 12 70 15 17 3 41 8 55 11 14 3 57 12 95 20 39 7 84 16 100 20 41 8 133
24 175 31 19 3 42 7 50 9 8 2 38 7 65 10 28 4 57 8 65 11 8 2 38 6 65 9 28 3
61 8 75 10 14 3 45 7 70 10 25 3 79 9 120 15 41 5 109 12 150 15 41 4 86 8
100 10 23 2 161 13 265 20 22 2 139 6 260 10 121 4 221 8 222 9 3 2 222 -2
423 -9z"/>
<path d="M5280 15799 c-103 -18 -209 -52 -262 -86 -21 -12 -41 -23 -46 -23 -8
0 -122 -89 -158 -124 -114 -111 -207 -300 -230 -471 -9 -65 -9 -10305 0
-10370 9 -67 23 -119 48 -185 23 -61 75 -158 95 -178 7 -7 13 -17 13 -21 0 -4
29 -37 64 -73 107 -110 242 -190 386 -228 25 -7 54 -15 65 -18 32 -9 4570 -10
4623 -1 83 14 100 19 174 46 130 46 274 157 376 288 35 45 108 202 129 275 17
62 18 278 18 5280 0 5032 -1 5217 -18 5280 -85 297 -303 515 -595 592 l-87 23
-2275 0 c-1251 1 -2295 -2 -2320 -6z m2736 -894 c53 -26 88 -74 98 -130 2 -17
5 -213 5 -437 l1 -408 470 0 c444 0 473 -1 508 -19 55 -28 119 -102 155 -179
l31 -67 1 -380 0 -380 -25 -45 c-31 -54 -96 -105 -158 -123 -36 -10 -152 -13
-514 -13 l-468 1 -1 -450 c0 -247 -2 -466 -5 -485 -11 -83 -81 -173 -146 -185
-18 -3 -200 -5 -403 -3 l-370 3 -66 32 c-36 18 -82 49 -103 70 -73 73 -70 48
-72 548 -1 248 -2 455 -3 460 -1 7 -147 10 -418 10 -468 0 -475 1 -547 71 -73
71 -71 57 -73 470 -2 405 -1 418 56 517 33 58 68 94 121 126 34 20 46 21 450
21 l415 0 0 403 c-1 221 3 414 7 428 19 57 116 129 206 154 34 10 148 13 423
14 l375 1 50 -25z m-1124 -5124 c26 -13 62 -39 79 -59 65 -74 63 -51 62 -667
0 -631 3 -601 -78 -680 -70 -68 -69 -68 -669 -68 -358 0 -544 4 -571 11 -77
22 -146 90 -166 167 -8 27 -11 219 -11 580 -1 582 -2 570 52 646 26 36 101 81
149 88 20 4 277 6 571 5 l535 0 47 -23z m2578 3 c59 -27 111 -82 132 -142 15
-42 17 -103 18 -580 0 -375 -3 -547 -12 -580 -16 -63 -96 -145 -158 -163 -61
-16 -1096 -17 -1156 0 -51 14 -118 71 -147 125 -22 41 -22 44 -23 605 l-1 564
29 56 c16 31 43 67 60 81 70 55 77 55 668 55 526 -1 547 -2 590 -21z m-2604
-2619 c59 -17 120 -71 149 -130 18 -38 19 -68 19 -605 0 -555 0 -566 -21 -605
-28 -53 -78 -99 -132 -123 -42 -19 -69 -20 -589 -20 -619 1 -604 -1 -682 77
-74 74 -73 67 -73 679 0 531 1 538 22 588 25 58 67 102 126 132 39 20 56 21
585 22 460 0 553 -2 596 -15z m2576 5 c57 -16 119 -69 150 -128 l28 -54 0
-549 c0 -507 -2 -553 -19 -598 -23 -61 -59 -101 -119 -132 l-47 -24 -540 -2
c-338 -2 -557 1 -585 8 -64 14 -133 68 -161 126 l-24 48 -2 545 c-1 329 3 561
9 585 20 82 92 157 170 175 51 12 1097 12 1140 0z"/>
<path d="M11517 11713 c-86 -18 -156 -73 -198 -158 -29 -59 -32 -74 -32 -158
-1 -51 5 -110 13 -132 29 -90 105 -165 195 -196 33 -11 428 -13 2275 -14 2314
-1 2317 -1 2367 37 57 43 121 120 133 159 20 66 22 195 5 256 -27 92 -108 175
-200 204 -57 18 -4469 20 -4558 2z"/>
<path d="M11856 10553 c-2 -3 -24 -7 -48 -9 -94 -11 -268 -84 -338 -143 -99
-83 -153 -160 -173 -246 -11 -50 -13 -548 -12 -2850 l1 -2790 32 -67 c78 -160
248 -281 467 -333 60 -14 142 -16 553 -17 266 0 485 2 487 4 3 3 5 612 6 1354
l0 1349 27 82 c49 147 137 244 253 277 50 15 130 16 715 14 l659 -3 61 -32
c112 -58 199 -183 227 -324 10 -50 13 -347 13 -1391 l-1 -1328 25 -1 c132 -3
894 2 925 6 245 39 458 185 532 366 17 42 18 173 18 2864 l0 2820 -32 65 c-59
120 -178 219 -332 279 -160 62 -64 59 -2153 59 -1049 0 -1909 -3 -1912 -5z"/>
</g>
</svg>
